<svg width="16" height="14" viewBox="0 0 16 14" fill="none" xmlns="http://www.w3.org/2000/svg">
<path d="M14.7891 6.89103L8.75161 0.856656L8.34693 0.451968C8.25472 0.360369 8.13002 0.30896 8.00005 0.30896C7.87008 0.30896 7.74538 0.360369 7.65318 0.451968L1.21099 6.89103C1.11651 6.98515 1.04184 7.09723 0.991384 7.22068C0.940932 7.34413 0.915721 7.47643 0.91724 7.60978C0.92349 8.15978 1.3813 8.59884 1.9313 8.59884H2.59537V13.6879H13.4047V8.59884H14.0829C14.3501 8.59884 14.6016 8.49415 14.7907 8.30509C14.8838 8.2123 14.9575 8.10196 15.0077 7.98046C15.0578 7.85896 15.0834 7.72872 15.0829 7.59728C15.0829 7.33166 14.9782 7.08009 14.7891 6.89103ZM8.87505 12.5629H7.12505V9.37541H8.87505V12.5629ZM12.2797 7.47384V12.5629H9.87505V9.00041C9.87505 8.65509 9.59536 8.37541 9.25005 8.37541H6.75005C6.40474 8.37541 6.12505 8.65509 6.12505 9.00041V12.5629H3.72036V7.47384H2.22037L8.00161 1.69728L8.36255 2.05822L13.7813 7.47384H12.2797Z" fill="#8C8C8C"/>
</svg>
